<?xml version="1.0" encoding="utf-8"?>
<!-- Generator: Adobe Illustrator 24.1.1, SVG Export Plug-In . SVG Version: 6.00 Build 0)  -->
<svg version="1.1" id="Layer_1" xmlns="http://www.w3.org/2000/svg" xmlns:xlink="http://www.w3.org/1999/xlink" x="0px" y="0px"
	 viewBox="0 0 425 155" style="enable-background:new 0 0 425 155;" xml:space="preserve">
<style type="text/css">
	.st0{fill:#0D6EFD;}
	.st1{fill:#212529;}
</style>
<g>
	<path class="st0" d="M136.49,22.15l-2.73-11.07l-11.23,1.95c-3.12,0.54-6.41,0.82-9.8,0.82c-19.76,0-37.1-9.21-37.24-9.28
		l-5.84-3.15l-5.83,3.14c-0.17,0.09-17.52,9.3-37.28,9.3c-3.39,0-6.68-0.28-9.8-0.82L5.5,11.08L2.77,22.15
		c-0.24,0.96-5.75,23.86-1.1,51.11c6.34,37.11,28.2,64.48,63.23,79.17l4.73,1.98l4.73-1.98c35.03-14.69,56.89-42.07,63.23-79.17
		C142.23,46.01,136.72,23.11,136.49,22.15z M69.63,141.16C-6.14,109.39,14.64,25.07,14.64,25.07c28.11,4.89,54.99-9.78,54.99-9.78
		s26.88,14.66,54.99,9.78C124.62,25.07,145.39,109.39,69.63,141.16z"/>
	
		<rect x="88.24" y="44.19" transform="matrix(0.7071 -0.7071 0.7071 0.7071 -11.257 81.9514)" class="st0" width="10.11" height="20.74"/>
	
		<rect x="50.91" y="66.1" transform="matrix(0.7071 -0.7071 0.7071 0.7071 -33.1616 72.878)" class="st0" width="40.96" height="20.74"/>
	<polygon class="st0" points="45.9,87.66 44.15,96.58 42.41,105.49 51.32,103.71 60.22,101.93 53.06,94.8 	"/>
</g>
<g>
	<g>
		<path class="st1" d="M198.39,78.73l-8.72,9.39v23.26h-16.78V29.97h16.78v36.91l7.38-10.12l20.75-26.78h20.63l-28.91,36.18
			l29.75,45.24H219.3L198.39,78.73z"/>
		<path class="st1" d="M279.58,111.38c-0.75-1.45-1.29-3.26-1.62-5.42c-3.91,4.36-9,6.54-15.27,6.54c-5.93,0-10.84-1.71-14.73-5.14
			c-3.89-3.43-5.84-7.75-5.84-12.97c0-6.41,2.38-11.33,7.13-14.76c4.75-3.43,11.62-5.16,20.61-5.2h7.44v-3.47
			c0-2.8-0.72-5.03-2.15-6.71c-1.44-1.68-3.7-2.52-6.79-2.52c-2.72,0-4.86,0.65-6.4,1.96c-1.55,1.31-2.32,3.09-2.32,5.37h-16.16
			c0-3.5,1.08-6.75,3.24-9.73c2.16-2.98,5.22-5.32,9.17-7.02c3.95-1.7,8.39-2.54,13.31-2.54c7.46,0,13.37,1.87,17.75,5.62
			c4.38,3.75,6.57,9.01,6.57,15.8V97.4c0.04,5.74,0.84,10.08,2.4,13.03v0.95H279.58z M266.21,100.14c2.38,0,4.58-0.53,6.6-1.59
			s3.5-2.49,4.47-4.28v-10.4h-6.04c-8.09,0-12.39,2.8-12.92,8.39l-0.06,0.95c0,2.01,0.71,3.67,2.13,4.98
			C261.81,99.49,263.75,100.14,266.21,100.14z"/>
		<path class="st1" d="M322.97,111.38h-16.22V25.49h16.22V111.38z"/>
		<path class="st1" d="M353.33,111.38h-16.22V25.49h16.22V111.38z"/>
		<path class="st1" d="M364.13,80.57c0-6,1.16-11.35,3.47-16.05c2.31-4.7,5.64-8.33,9.98-10.9c4.34-2.57,9.38-3.86,15.13-3.86
			c8.16,0,14.83,2.5,19.99,7.49c5.16,5,8.04,11.78,8.64,20.35l0.11,4.14c0,9.28-2.59,16.73-7.77,22.34
			c-5.18,5.61-12.13,8.42-20.86,8.42c-8.72,0-15.68-2.8-20.88-8.39c-5.2-5.59-7.8-13.2-7.8-22.81V80.57z M380.29,81.72
			c0,5.75,1.08,10.15,3.24,13.19c2.16,3.04,5.26,4.56,9.28,4.56c3.91,0,6.97-1.5,9.17-4.51c2.2-3.01,3.3-7.81,3.3-14.42
			c0-5.64-1.1-10.01-3.3-13.1c-2.2-3.1-5.29-4.65-9.28-4.65c-3.95,0-7.01,1.54-9.17,4.62C381.37,70.49,380.29,75.26,380.29,81.72z"
			/>
	</g>
</g>
</svg>
